<svg version="1.1" id="Layer_1" xmlns="http://www.w3.org/2000/svg" xmlns:xlink="http://www.w3.org/1999/xlink" x="0px" y="0px"
	 width="100%" viewBox="0 0 512 512" enable-background="new 0 0 512 512" xml:space="preserve">
<path fill="#010101" opacity="1.000000" stroke="none" 
	d="
M269.000000,513.000000 
	C179.355087,513.000000 90.210175,513.000000 1.032630,513.000000 
	C1.032630,342.396729 1.032630,171.793442 1.032630,1.095084 
	C171.561600,1.095084 342.123260,1.095084 512.842468,1.095084 
	C512.842468,171.666550 512.842468,342.333252 512.842468,513.000000 
	C431.793427,513.000000 350.646698,513.000000 269.000000,513.000000 
M238.049713,43.750374 
	C216.870316,64.828926 195.642029,85.859100 174.624451,107.097794 
	C173.262329,108.474251 172.739883,111.620728 173.171051,113.659592 
	C174.555923,120.208481 176.553177,126.629128 178.349747,133.089355 
	C180.019836,139.094696 181.769287,145.078064 183.422913,151.087860 
	C185.681335,159.295761 187.949509,167.502014 190.088852,175.741348 
	C192.268372,184.135468 194.137009,192.612778 196.436447,200.972595 
	C198.728516,209.305618 201.464218,217.516510 203.765442,225.847275 
	C204.000351,226.697678 202.861420,228.456512 201.903061,229.029465 
	C183.210022,240.204712 164.470352,251.302841 145.656647,262.273438 
	C144.326370,263.049164 142.348312,262.714050 140.590942,262.904205 
	C138.358643,220.447388 136.162445,178.677292 133.904282,135.728622 
	C122.252991,151.535538 111.422188,166.332428 100.481270,181.047424 
	C85.501877,201.193970 70.474800,221.305359 55.389725,241.372849 
	C50.859653,247.399124 48.027760,253.486893 48.385403,261.588562 
	C49.156456,279.055145 48.655659,296.575562 48.868191,314.071564 
	C48.903183,316.951874 47.980564,318.727997 45.588573,320.081635 
	C36.967735,324.960114 28.346684,329.839874 19.789078,334.827911 
	C14.035625,338.181396 8.388962,341.718079 2.820480,345.096405 
	C4.695588,348.720978 6.027289,351.661072 7.671654,354.414459 
	C18.503719,372.552155 28.987991,390.917145 40.423729,408.668091 
	C48.291203,420.880249 52.737621,433.376678 50.928272,448.071808 
	C50.120228,454.634521 50.831203,461.386719 50.897217,468.052490 
	C50.909733,469.315826 51.131428,470.577087 51.223347,471.503998 
	C60.060570,472.036041 68.468849,472.948273 76.880936,472.984894 
	C148.363770,473.296234 219.847351,473.511444 291.330475,473.456482 
	C294.807831,473.453796 299.090057,471.494110 301.629211,469.033722 
	C319.123688,452.081604 336.210205,434.709320 353.537994,417.583557 
	C357.038940,414.123413 356.021057,410.407776 354.929291,406.632690 
	C353.281372,400.934265 351.373840,395.311493 349.627960,389.640717 
	C347.839203,383.830627 346.131836,377.995514 344.352142,372.182587 
	C342.885956,367.393677 341.241852,362.655731 339.901123,357.832794 
	C338.182953,351.651978 336.895966,345.346710 335.052338,339.206390 
	C332.151550,329.545380 328.904480,319.988831 325.875580,310.365540 
	C323.963928,304.291992 322.022461,298.219788 320.394501,292.067566 
	C319.139709,287.325439 318.352020,282.459717 317.451355,278.106689 
	C319.641907,276.802887 321.163513,276.181274 322.325348,275.153168 
	C325.996582,271.904510 329.101624,272.327820 332.513428,275.765106 
	C353.566406,296.975311 374.714569,318.091095 395.851105,339.218262 
	C401.811829,345.176300 407.839783,351.067108 413.825623,356.977661 
	C418.243958,352.608032 422.252533,348.684784 426.216248,344.716705 
	C444.558960,326.353699 462.872742,307.961761 481.251190,289.634613 
	C482.952362,287.938171 484.178436,286.977814 481.721954,284.602814 
	C472.320953,275.513702 463.169098,266.166138 453.957550,256.882019 
	C442.837158,245.673950 431.795624,234.387085 420.608154,223.246628 
	C418.581543,221.228485 418.943512,219.901169 421.005737,218.584503 
	C424.361572,216.441879 427.755280,214.354843 431.183685,212.330185 
	C442.425110,205.691483 453.663452,199.046799 464.955322,192.494614 
	C470.942780,189.020325 477.071442,185.790100 483.077271,182.346649 
	C491.618378,177.449570 499.958954,172.174332 508.698242,167.667709 
	C511.562164,166.190842 511.047577,165.311081 509.960938,163.326035 
	C505.606415,155.371368 501.311859,147.383789 497.017029,139.396591 
	C486.543030,119.918030 476.031494,100.459259 465.674072,80.918839 
	C464.294891,78.316872 463.613220,77.572830 460.618439,79.374184 
	C442.552795,90.240547 424.343689,100.871384 406.092926,111.426048 
	C387.273895,122.309364 368.291565,132.911453 349.528839,143.889847 
	C345.880737,146.024399 343.798828,145.474075 340.977631,142.614944 
	C325.391327,126.818916 309.568542,111.256592 293.905121,95.536156 
	C277.789673,79.362030 261.820343,63.041698 245.620621,46.952957 
	C243.807709,45.152477 240.911026,44.443249 238.049713,43.750374 
z"/>
<path fill="#F8F8F8" opacity="1.000000" stroke="none" 
	d="
M238.283325,43.489166 
	C240.911026,44.443249 243.807709,45.152477 245.620621,46.952957 
	C261.820343,63.041698 277.789673,79.362030 293.905121,95.536156 
	C309.568542,111.256592 325.391327,126.818916 340.977631,142.614944 
	C343.798828,145.474075 345.880737,146.024399 349.528839,143.889847 
	C368.291565,132.911453 387.273895,122.309364 406.092926,111.426048 
	C424.343689,100.871384 442.552795,90.240547 460.618439,79.374184 
	C463.613220,77.572830 464.294891,78.316872 465.674072,80.918839 
	C476.031494,100.459259 486.543030,119.918030 497.017029,139.396591 
	C501.311859,147.383789 505.606415,155.371368 509.960938,163.326035 
	C511.047577,165.311081 511.562164,166.190842 508.698242,167.667709 
	C499.958954,172.174332 491.618378,177.449570 483.077271,182.346649 
	C477.071442,185.790100 470.942780,189.020325 464.955322,192.494614 
	C453.663452,199.046799 442.425110,205.691483 431.183685,212.330185 
	C427.755280,214.354843 424.361572,216.441879 421.005737,218.584503 
	C418.943512,219.901169 418.581543,221.228485 420.608154,223.246628 
	C431.795624,234.387085 442.837158,245.673950 453.957550,256.882019 
	C463.169098,266.166138 472.320953,275.513702 481.721954,284.602814 
	C484.178436,286.977814 482.952362,287.938171 481.251190,289.634613 
	C462.872742,307.961761 444.558960,326.353699 426.216248,344.716705 
	C422.252533,348.684784 418.243958,352.608032 413.825623,356.977661 
	C407.839783,351.067108 401.811829,345.176300 395.851105,339.218262 
	C374.714569,318.091095 353.566406,296.975311 332.513428,275.765106 
	C329.101624,272.327820 325.996582,271.904510 322.325348,275.153168 
	C321.163513,276.181274 319.641907,276.802887 317.451355,278.106689 
	C318.352020,282.459717 319.139709,287.325439 320.394501,292.067566 
	C322.022461,298.219788 323.963928,304.291992 325.875580,310.365540 
	C328.904480,319.988831 332.151550,329.545380 335.052338,339.206390 
	C336.895966,345.346710 338.182953,351.651978 339.901123,357.832794 
	C341.241852,362.655731 342.885956,367.393677 344.352142,372.182587 
	C346.131836,377.995514 347.839203,383.830627 349.627960,389.640717 
	C351.373840,395.311493 353.281372,400.934265 354.929291,406.632690 
	C356.021057,410.407776 357.038940,414.123413 353.537994,417.583557 
	C336.210205,434.709320 319.123688,452.081604 301.629211,469.033722 
	C299.090057,471.494110 294.807831,473.453796 291.330475,473.456482 
	C219.847351,473.511444 148.363770,473.296234 76.880936,472.984894 
	C68.468849,472.948273 60.060570,472.036041 51.223347,471.503998 
	C51.131428,470.577087 50.909733,469.315826 50.897217,468.052490 
	C50.831203,461.386719 50.120228,454.634521 50.928272,448.071808 
	C52.737621,433.376678 48.291203,420.880249 40.423729,408.668091 
	C28.987991,390.917145 18.503719,372.552155 7.671654,354.414459 
	C6.027289,351.661072 4.695588,348.720978 2.820480,345.096405 
	C8.388962,341.718079 14.035625,338.181396 19.789078,334.827911 
	C28.346684,329.839874 36.967735,324.960114 45.588573,320.081635 
	C47.980564,318.727997 48.903183,316.951874 48.868191,314.071564 
	C48.655659,296.575562 49.156456,279.055145 48.385403,261.588562 
	C48.027760,253.486893 50.859653,247.399124 55.389725,241.372849 
	C70.474800,221.305359 85.501877,201.193970 100.481270,181.047424 
	C111.422188,166.332428 122.252991,151.535538 133.904282,135.728622 
	C136.162445,178.677292 138.358643,220.447388 140.590942,262.904205 
	C142.348312,262.714050 144.326370,263.049164 145.656647,262.273438 
	C164.470352,251.302841 183.210022,240.204712 201.903061,229.029465 
	C202.861420,228.456512 204.000351,226.697678 203.765442,225.847275 
	C201.464218,217.516510 198.728516,209.305618 196.436447,200.972595 
	C194.137009,192.612778 192.268372,184.135468 190.088852,175.741348 
	C187.949509,167.502014 185.681335,159.295761 183.422913,151.087860 
	C181.769287,145.078064 180.019836,139.094696 178.349747,133.089355 
	C176.553177,126.629128 174.555923,120.208481 173.171051,113.659592 
	C172.739883,111.620728 173.262329,108.474251 174.624451,107.097794 
	C195.642029,85.859100 216.870316,64.828926 238.283325,43.489166 
M332.562836,406.319153 
	C331.597809,402.833405 330.643127,399.344727 329.665619,395.862457 
	C327.539032,388.287018 325.488251,380.688843 323.246002,373.147675 
	C320.171539,362.807617 316.872314,352.534210 313.813477,342.189667 
	C311.540436,334.502380 309.570587,326.725769 307.330109,319.028412 
	C304.911011,310.717438 302.080536,302.516998 299.944366,294.137146 
	C299.019104,290.507599 297.214813,290.051727 294.656281,291.515869 
	C280.885284,299.396484 267.188995,307.409332 253.552414,315.520203 
	C252.539032,316.122955 251.557510,317.917297 251.669724,319.047668 
	C251.938873,321.759033 252.840103,324.412262 253.537109,327.075623 
	C255.014725,332.721771 256.514740,338.362122 258.023804,343.999969 
	C260.416199,352.937836 262.833466,361.869080 265.221497,370.808136 
	C267.434021,379.090240 269.622040,387.378876 271.885559,395.908539 
	C223.326111,395.908539 174.961060,395.908539 126.649300,395.908539 
	C125.869576,389.811432 124.793617,384.105286 124.472626,378.356995 
	C123.657509,363.760193 123.126518,349.146454 122.590927,334.535522 
	C122.322578,327.214966 122.542747,319.870789 122.105515,312.563385 
	C121.015968,294.353851 119.448486,276.171143 118.502396,257.955353 
	C117.588982,240.368835 117.276215,222.751663 116.508423,205.156296 
	C116.426430,203.277298 115.065994,201.454102 114.074837,199.065750 
	C112.758621,200.539932 112.277565,200.999756 111.887642,201.526962 
	C100.881058,216.408890 89.798416,231.235703 78.922363,246.212524 
	C73.823494,253.233856 66.863251,259.506531 68.877907,269.728699 
	C69.578362,273.282776 69.562881,277.004761 69.621788,280.654144 
	C70.054016,307.431274 70.469650,334.208862 70.788216,360.987579 
	C70.924942,372.481262 70.704910,383.979218 70.848465,395.472748 
	C71.060448,412.445526 71.476433,429.415710 71.739899,446.388000 
	C71.776863,448.768890 72.376465,450.045654 75.104416,450.124054 
	C85.549835,450.424377 95.986824,451.160156 106.432365,451.286072 
	C134.740341,451.627350 163.050781,451.814545 191.360794,451.923065 
	C222.680267,452.043091 254.000534,452.059479 285.319641,451.926392 
	C287.435730,451.917419 290.012878,450.771362 291.576355,449.303101 
	C298.414551,442.881622 305.043335,436.229187 311.585327,429.502289 
	C318.743164,422.142090 325.722015,414.607788 332.562836,406.319153 
M306.634338,260.159302 
	C308.907013,258.934784 311.220215,257.779419 313.446289,256.475403 
	C346.916016,236.869171 380.315399,217.142059 413.856567,197.658966 
	C434.994202,185.380768 456.319397,173.424362 477.612396,161.415741 
	C481.225037,159.378326 482.491638,157.268738 480.239349,153.224213 
	C472.409851,139.164139 464.647217,125.058861 457.293793,110.747467 
	C455.507965,107.271950 454.324585,107.826859 451.746948,109.356033 
	C446.533356,112.448959 441.077606,115.131233 435.831665,118.172508 
	C413.328094,131.218643 390.846985,144.303802 368.390961,157.431625 
	C343.880920,171.760239 319.477142,186.271927 294.899628,200.483505 
	C267.598663,216.269897 240.121841,231.751770 212.781876,247.471069 
	C190.863083,260.073425 169.023514,272.813782 147.178116,285.543243 
	C144.089981,287.342712 142.018158,289.477539 142.272537,293.819550 
	C143.312561,311.572327 143.848389,329.354156 144.710114,347.118500 
	C144.794769,348.863342 145.839462,350.561676 146.574219,352.671143 
	C165.665894,341.630615 183.933350,331.013885 202.252426,320.486938 
	C223.203140,308.447815 244.226471,296.535004 265.166840,284.477966 
	C278.833588,276.608887 292.408783,268.580872 306.634338,260.159302 
M207.787613,105.297546 
	C204.515488,108.517532 201.061295,111.580231 198.070129,115.042923 
	C197.025101,116.252708 196.411911,118.635162 196.814255,120.162636 
	C199.019318,128.534119 201.774689,136.759995 204.010818,145.124146 
	C206.962753,156.165756 209.462204,167.328552 212.427490,178.366348 
	C215.475449,189.711853 219.029160,200.923096 221.981613,212.291763 
	C222.979874,216.135696 225.225174,215.956223 227.478119,214.659729 
	C239.259125,207.880127 250.742798,200.567642 262.676422,194.077728 
	C267.198120,191.618668 266.361115,188.938904 265.118683,185.546295 
	C262.796631,179.205582 260.358521,172.906219 258.136566,166.531128 
	C257.777588,165.501175 258.284973,164.169266 258.482758,161.963409 
	C265.528809,170.302063 271.883698,177.822723 278.341034,185.464661 
	C279.609070,184.442230 280.282501,183.738586 281.092102,183.270462 
	C294.449280,175.547165 307.786133,167.787201 321.219635,160.198471 
	C324.707397,158.228210 324.762054,156.634430 321.985901,153.872177 
	C295.935059,127.951729 269.937866,101.976921 244.038055,75.905724 
	C241.245010,73.094208 239.380600,73.238739 236.741364,75.936798 
	C227.298477,85.590118 217.703384,95.094528 207.787613,105.297546 
M367.896027,249.376297 
	C361.236786,253.361740 354.577515,257.347198 347.716034,261.453674 
	C369.026764,282.765747 389.519714,303.158722 409.853882,323.708832 
	C412.777588,326.663544 414.555786,326.554260 417.402191,323.633423 
	C428.153381,312.601196 439.114563,301.772400 450.067291,290.938416 
	C454.280853,286.770569 454.427521,286.291626 450.143341,281.978912 
	C443.203400,274.992920 436.169586,268.100311 429.199493,261.144104 
	C419.946564,251.909531 410.760803,242.606583 401.402740,233.480057 
	C400.553070,232.651413 398.284637,232.208115 397.309662,232.742874 
	C387.652893,238.039642 378.130035,243.580582 367.896027,249.376297 
M232.458664,333.068573 
	C232.042633,331.730316 231.626602,330.392059 231.050369,328.538483 
	C204.962021,343.628510 179.353577,358.440979 153.745132,373.253448 
	C155.608536,374.765717 157.276566,375.347626 158.945862,375.351257 
	C185.242111,375.408600 211.538651,375.423828 237.834686,375.330109 
	C239.926758,375.322662 242.015717,374.443268 243.845688,374.028137 
	C241.726974,365.948120 239.888702,358.730438 237.933212,351.544647 
	C236.315536,345.600250 234.559448,339.693542 232.458664,333.068573 
M41.031471,368.421936 
	C43.281532,372.122070 45.531597,375.822205 48.406036,380.549103 
	C49.242805,377.958832 50.254478,376.333984 50.198120,374.747040 
	C49.918110,366.862122 49.352657,358.987396 48.896835,351.108551 
	C48.758457,348.716736 48.649136,346.323242 48.487091,343.161530 
	C43.321644,346.095673 38.811783,348.372498 34.685505,351.207611 
	C33.691925,351.890289 33.198185,354.802399 33.804245,356.035858 
	C35.797474,360.092499 38.401333,363.849121 41.031471,368.421936 
z"/>
<path fill="#030303" opacity="1.000000" stroke="none" 
	d="
M332.670868,406.734253 
	C325.722015,414.607788 318.743164,422.142090 311.585327,429.502289 
	C305.043335,436.229187 298.414551,442.881622 291.576355,449.303101 
	C290.012878,450.771362 287.435730,451.917419 285.319641,451.926392 
	C254.000534,452.059479 222.680267,452.043091 191.360794,451.923065 
	C163.050781,451.814545 134.740341,451.627350 106.432365,451.286072 
	C95.986824,451.160156 85.549835,450.424377 75.104416,450.124054 
	C72.376465,450.045654 71.776863,448.768890 71.739899,446.388000 
	C71.476433,429.415710 71.060448,412.445526 70.848465,395.472748 
	C70.704910,383.979218 70.924942,372.481262 70.788216,360.987579 
	C70.469650,334.208862 70.054016,307.431274 69.621788,280.654144 
	C69.562881,277.004761 69.578362,273.282776 68.877907,269.728699 
	C66.863251,259.506531 73.823494,253.233856 78.922363,246.212524 
	C89.798416,231.235703 100.881058,216.408890 111.887642,201.526962 
	C112.277565,200.999756 112.758621,200.539932 114.074837,199.065750 
	C115.065994,201.454102 116.426430,203.277298 116.508423,205.156296 
	C117.276215,222.751663 117.588982,240.368835 118.502396,257.955353 
	C119.448486,276.171143 121.015968,294.353851 122.105515,312.563385 
	C122.542747,319.870789 122.322578,327.214966 122.590927,334.535522 
	C123.126518,349.146454 123.657509,363.760193 124.472626,378.356995 
	C124.793617,384.105286 125.869576,389.811432 126.649300,395.908539 
	C174.961060,395.908539 223.326111,395.908539 271.885559,395.908539 
	C269.622040,387.378876 267.434021,379.090240 265.221497,370.808136 
	C262.833466,361.869080 260.416199,352.937836 258.023804,343.999969 
	C256.514740,338.362122 255.014725,332.721771 253.537109,327.075623 
	C252.840103,324.412262 251.938873,321.759033 251.669724,319.047668 
	C251.557510,317.917297 252.539032,316.122955 253.552414,315.520203 
	C267.188995,307.409332 280.885284,299.396484 294.656281,291.515869 
	C297.214813,290.051727 299.019104,290.507599 299.944366,294.137146 
	C302.080536,302.516998 304.911011,310.717438 307.330109,319.028412 
	C309.570587,326.725769 311.540436,334.502380 313.813477,342.189667 
	C316.872314,352.534210 320.171539,362.807617 323.246002,373.147675 
	C325.488251,380.688843 327.539032,388.287018 329.665619,395.862457 
	C330.643127,399.344727 331.597809,402.833405 332.670868,406.734253 
z"/>
<path fill="#040404" opacity="1.000000" stroke="none" 
	d="
M306.329651,260.391663 
	C292.408783,268.580872 278.833588,276.608887 265.166840,284.477966 
	C244.226471,296.535004 223.203140,308.447815 202.252426,320.486938 
	C183.933350,331.013885 165.665894,341.630615 146.574219,352.671143 
	C145.839462,350.561676 144.794769,348.863342 144.710114,347.118500 
	C143.848389,329.354156 143.312561,311.572327 142.272537,293.819550 
	C142.018158,289.477539 144.089981,287.342712 147.178116,285.543243 
	C169.023514,272.813782 190.863083,260.073425 212.781876,247.471069 
	C240.121841,231.751770 267.598663,216.269897 294.899628,200.483505 
	C319.477142,186.271927 343.880920,171.760239 368.390961,157.431625 
	C390.846985,144.303802 413.328094,131.218643 435.831665,118.172508 
	C441.077606,115.131233 446.533356,112.448959 451.746948,109.356033 
	C454.324585,107.826859 455.507965,107.271950 457.293793,110.747467 
	C464.647217,125.058861 472.409851,139.164139 480.239349,153.224213 
	C482.491638,157.268738 481.225037,159.378326 477.612396,161.415741 
	C456.319397,173.424362 434.994202,185.380768 413.856567,197.658966 
	C380.315399,217.142059 346.916016,236.869171 313.446289,256.475403 
	C311.220215,257.779419 308.907013,258.934784 306.329651,260.391663 
z"/>
<path fill="#040404" opacity="1.000000" stroke="none" 
	d="
M207.976746,104.976402 
	C217.703384,95.094528 227.298477,85.590118 236.741364,75.936798 
	C239.380600,73.238739 241.245010,73.094208 244.038055,75.905724 
	C269.937866,101.976921 295.935059,127.951729 321.985901,153.872177 
	C324.762054,156.634430 324.707397,158.228210 321.219635,160.198471 
	C307.786133,167.787201 294.449280,175.547165 281.092102,183.270462 
	C280.282501,183.738586 279.609070,184.442230 278.341034,185.464661 
	C271.883698,177.822723 265.528809,170.302063 258.482758,161.963409 
	C258.284973,164.169266 257.777588,165.501175 258.136566,166.531128 
	C260.358521,172.906219 262.796631,179.205582 265.118683,185.546295 
	C266.361115,188.938904 267.198120,191.618668 262.676422,194.077728 
	C250.742798,200.567642 239.259125,207.880127 227.478119,214.659729 
	C225.225174,215.956223 222.979874,216.135696 221.981613,212.291763 
	C219.029160,200.923096 215.475449,189.711853 212.427490,178.366348 
	C209.462204,167.328552 206.962753,156.165756 204.010818,145.124146 
	C201.774689,136.759995 199.019318,128.534119 196.814255,120.162636 
	C196.411911,118.635162 197.025101,116.252708 198.070129,115.042923 
	C201.061295,111.580231 204.515488,108.517532 207.976746,104.976402 
z"/>
<path fill="#050505" opacity="1.000000" stroke="none" 
	d="
M368.232666,249.214355 
	C378.130035,243.580582 387.652893,238.039642 397.309662,232.742874 
	C398.284637,232.208115 400.553070,232.651413 401.402740,233.480057 
	C410.760803,242.606583 419.946564,251.909531 429.199493,261.144104 
	C436.169586,268.100311 443.203400,274.992920 450.143341,281.978912 
	C454.427521,286.291626 454.280853,286.770569 450.067291,290.938416 
	C439.114563,301.772400 428.153381,312.601196 417.402191,323.633423 
	C414.555786,326.554260 412.777588,326.663544 409.853882,323.708832 
	C389.519714,303.158722 369.026764,282.765747 347.716034,261.453674 
	C354.577515,257.347198 361.236786,253.361740 368.232666,249.214355 
z"/>
<path fill="#080808" opacity="1.000000" stroke="none" 
	d="
M232.661682,333.419373 
	C234.559448,339.693542 236.315536,345.600250 237.933212,351.544647 
	C239.888702,358.730438 241.726974,365.948120 243.845688,374.028137 
	C242.015717,374.443268 239.926758,375.322662 237.834686,375.330109 
	C211.538651,375.423828 185.242111,375.408600 158.945862,375.351257 
	C157.276566,375.347626 155.608536,374.765717 153.745132,373.253448 
	C179.353577,358.440979 204.962021,343.628510 231.050369,328.538483 
	C231.626602,330.392059 232.042633,331.730316 232.661682,333.419373 
z"/>
<path fill="#161616" opacity="1.000000" stroke="none" 
	d="
M40.901039,368.071472 
	C38.401333,363.849121 35.797474,360.092499 33.804245,356.035858 
	C33.198185,354.802399 33.691925,351.890289 34.685505,351.207611 
	C38.811783,348.372498 43.321644,346.095673 48.487091,343.161530 
	C48.649136,346.323242 48.758457,348.716736 48.896835,351.108551 
	C49.352657,358.987396 49.918110,366.862122 50.198120,374.747040 
	C50.254478,376.333984 49.242805,377.958832 48.406036,380.549103 
	C45.531597,375.822205 43.281532,372.122070 40.901039,368.071472 
z"/>
</svg>